<svg version="1" xmlns="http://www.w3.org/2000/svg" width="1920" height="1920" viewBox="0 0 1440.000000 1440.000000"><path d="M794.5 19.5c-14.5 3.6-25 10-29.5 18.1-1.4 2.3-2.2 5.8-2.4 9.8-.1 3.3-.8 7.2-1.6 8.6-.9 1.6-1.5 7.2-1.8 15.5-.4 11.9-.6 13.2-2.7 15.5-4 4.4-8.5 13.6-8.5 17.5 0 4.6 3.4 10.9 6.6 12.4 3.7 1.6 4.7 5.5 3.9 14.6-.3 4.4-.7 13.1-.8 19.2-.2 10.6 0 11.5 2.3 15 1.4 2 3.3 4.1 4.3 4.7 2.7 1.6 6-2.7 7.7-10 .7-3.2 2.3-7 3.4-8.2 2-2.2 2.1-3.4 1.8-18.1l-.2-15.6 3.1-1.9c2.6-1.5 3.7-1.6 7.5-.7 8.5 2.2 21.4 13.2 32.3 27.6 3.3 4.4 7.3 9.5 8.8 11.4 1.5 1.9 3.9 5.5 5.4 8 5.8 10.6 7.9 13.2 10.2 12.9 1.6-.2 2.6-1.5 3.6-4.8.8-2.5 1.8-5.5 2.4-6.7.5-1.2.7-3.3.3-4.8-.4-1.6-.3-2.4.3-2.1 1.2.8.5-6.1-1.6-14.4-1.5-5.9-4.5-12-6.5-12.8-.4-.2-.8-.9-.8-1.6 0-.7-1.3-2.8-3-4.7-1.6-1.9-4.9-5.6-7.2-8.2-5.6-6.4-7.1-7.8-10.2-10-1.9-1.3-2.6-2.7-2.6-5.1 0-2.7 1-4.3 5.5-8.7 7.5-7.3 9.5-9.5 9.5-10.2 0-.3.5-1.8 1.2-3.4.6-1.5 1.3-3.5 1.4-4.3.1-.8 1-4.4 1.9-8 .9-3.8 1.7-10.8 1.7-16.7l.1-10.1-4.8-5.6c-2.6-3.1-5.4-5.6-6.2-5.6-.8 0-3.1-1.4-5.2-3-2.9-2.4-6-3.6-13.2-5-10.5-2.2-9.6-2.2-16.4-.5zm36.2 12.1c-.7.7-3.7-.7-3.7-1.7 0-.6.9-.5 2.1.1 1.1.7 1.9 1.4 1.6 1.6zm-24.3 19.2c.6.3 2 .8 3.1 1 3.1.4 9.6 4.1 11.6 6.5 1 1.2 1.8 3.7 1.8 5.7 0 4-2.3 6.2-11.1 10.8-7.9 4.2-10.8 6.3-10.8 7.8 0 1.1-1.3 1.2-6.2.7-3.5-.3-8.1-.6-10.3-.7-2.6-.1-4.8-.9-6.3-2.3-2.1-1.9-2.4-3.2-2.5-9-.1-9.6 1.8-18.2 4.2-19.8 3.7-2.2 23.2-2.8 26.5-.7zm29.6 71.6c0 .3-.4.8-1 1.1-.5.3-1 .1-1-.4 0-.6.5-1.1 1-1.1.6 0 1 .2 1 .4zM648.3 26.2c-1.3.6-2.3 1.5-2.3 2s-1 1.9-2.2 3.2c-3.7 3.8-5.7 7.9-5.1 10.8.3 1.8-.3 4.2-1.9 7-1.9 3.2-2.5 5.6-2.3 9.3.1 2.7-.3 5.6-.8 6.2-.5.7-.7 1.9-.4 2.7.3.8.1 1.6-.4 1.8-.9.3-1.4 2-3.3 9.9-.3.9-.9 2.5-1.5 3.5-.5 1.1-1.7 3.7-2.6 5.9-1.7 4.2-4.2 10-5.4 12.5-.4.8-3.3 2.3-6.5 3.4-11.9 3.9-17.9 15.2-12.6 23.8 3.2 5.2 2.5 8.7-4.2 23.8-2.8 6.3-5.1 15.9-4.9 20.9.2 4.2 2.5 8.7 5.2 10.2 1.7.9 2.5.7 4.5-1.2 1.3-1.2 2.4-3 2.4-4 0-2.7 2.1-7.1 4.9-10.2 1.9-2.1 2.5-3.7 2.4-6.7-.1-2.2.2-4.2.8-4.5.5-.4.9-2.2.9-4.2 0-4.5 4.4-14 6.7-14.7 1-.2 5.4-1 9.8-1.6 5.3-.8 10.4-2.3 15.2-4.7 6.5-3.2 7.4-4 8.9-8 1.3-3.4 2.2-4.3 3.7-4.1 1.6.2 2.3 1.6 3.5 6.8.8 3.6 2.1 8.3 2.9 10.5.9 2.2 1.9 4.9 2.3 6 .4 1.1 1.5 3.7 2.4 5.8.9 2.1 1.6 4.4 1.6 5.1 0 5.3 16.6 30.6 20.1 30.6.7 0 3.7-6 8.9-17.3 2-4.3 2.1-5.2.9-7.5-.7-1.5-1.4-3.5-1.5-4.5-.1-.9-.9-2.6-1.8-3.6-2-2.2-12.6-23.4-12.6-25.2 0-.6-.9-2.6-1.9-4.3-1.1-1.7-2.2-5.4-2.6-8.1-.3-2.8-1-5.9-1.5-7-.4-1.1-1.3-4-2-6.5-.6-2.5-1.8-6-2.6-7.8-.8-1.8-1.4-4.1-1.4-5.2 0-1-.4-2.1-1-2.5-.5-.3-.9-1.8-.8-3.3 0-1.5-.7-5.3-1.6-8.5-.9-3.2-1.9-8.2-2.2-11.2-.4-3-1-5.5-1.4-5.5-.4 0-1-2.8-1.4-6.2-.3-3.4-1.1-6.7-1.6-7.2-.6-.6-1-2.2-1-3.7s-.4-3.1-1-3.4c-.5-.3-1-1.7-1-3.1 0-2.8-4.4-7.4-6.9-7.3-.9 0-2.6.5-3.8 1.1zm.9 54.4c.4 2.1 1.4 7 2.3 10.9 1 3.8 1.8 9.2 1.9 12l.1 5-8.5-.2c-10.9-.3-11.3-.5-10.5-4.5.4-1.8 1.1-3.5 1.5-3.8 1.2-.9 6.8-13.3 7.5-17 1.6-7.9 4.5-9.1 5.7-2.4zM973 29.1c-1.9.5-4.5.7-5.7.4-1.2-.3-2.8.1-3.5.8-.7.8-4.2 1.7-7.7 2-7 .8-18.9 6-23.6 10.3-1.4 1.3-3 2.4-3.4 2.4-1.2 0-11.2 9.9-14.7 14.5-4.8 6.4-7.6 12.6-8 18-.9 11.6-1.2 34.1-.4 35.5.5.9 1 3.6 1.2 6 .6 7.2 10 25 13.3 25 .7 0 1.5.6 1.8 1.3.6 1.5 16.7 9.7 24.2 12.2 3.5 1.2 8.4 1.8 16 1.9 9.2 0 12-.3 17.2-2.3 3.3-1.2 7.1-3.2 8.2-4.3 1.2-1.1 3.4-2.2 4.9-2.4 1.5-.3 3.4-1.1 4.2-1.7.8-.7 3.1-2.1 5.2-3.1 2-1 6.2-4.3 9.3-7.3 6-5.8 16.9-20 18-23.3.3-1.1 1-2 1.5-2 .4 0 1.3-1.2 1.9-2.8.6-1.5 2.2-4.7 3.6-7.1 1.9-3.3 2.6-6.1 2.7-11 .2-6.6-.8-13.7-2.2-15.6-.4-.6-1.1-2.8-1.5-5-.9-5.4-3.7-11-9.9-19.9-3.7-5.4-12.1-13.6-14-13.6-.5 0-1.7-.7-2.6-1.5-2.3-2-18.1-6.2-30-7.9-1.4-.2-4.1.1-6 .5zm11.1 28.5c4.1.9 9.7 2.7 12.5 4 6.2 2.9 15.7 12.2 19 18.8 3.4 6.5 4.8 15.4 3.3 20.9-1.6 6.3-7.5 15.3-11.9 18.4-2.2 1.6-4 3.4-4 4 0 .7-.7 1.3-1.5 1.3s-2.4.9-3.5 2-2.6 2-3.2 2c-.7 0-2.6.7-4.1 1.5-7.2 3.7-21.5 5-29.3 2.5-6.5-2-14.2-5.9-17-8.5-1.4-1.3-3.4-2.7-4.3-3-2.7-.8-8.4-8.5-12.4-16.6-3.4-7-3.7-8.2-3.5-15.3.2-7.3.4-7.9 3.6-11.2 3.1-3.2 11.4-10.1 17.9-15 6.8-5 13.4-6.7 26.9-7.2 2.3-.1 7.5.5 11.5 1.4zM483.5 47.7c-1.9.4-7.5 3.1-15.2 7.3-5.6 3-10.6 7.1-18.1 14.9-5.9 6.1-8.4 9.6-12.3 17.9-4.8 9.9-5 10.7-5.6 21-.6 13 .5 19 5.7 29.7 6.7 13.5 18.7 26.1 31.5 32.8l8 4.2H493c14.9 0 21.6-.9 28-3.8 3.8-1.7 9-5.8 9.1-7.1 0-.6 2.6-3 5.9-5.3 4.4-3.1 6-4.9 6.5-7.5.4-1.8 1.6-4.4 2.6-5.7 2.2-2.8 2.4-4.2.7-5.9-.9-.9-1.5-.9-2.7.2-1.7 1.5-7.8 4-14.6 5.9-2.2.7-4.2 1.4-4.5 1.8-.8 1-13.2 2.9-19.3 2.9-5.7 0-17.5-2.5-19.1-4.1-.6-.5-1.7-.9-2.6-.9-2.1 0-8-2.9-8-3.9 0-.4-1.1-1.3-2.4-1.9-6.4-2.9-14.6-10.4-17.8-16.3-5.1-9.3-5.6-10.6-6.3-15.6-.7-5.4-.1-7.2 5-14.1C455.8 91 465 84 467 84c.5 0 1-.4 1-.9s1.2-1.6 2.8-2.4c8.2-4.3 12.9-7 14.3-8.3.8-.8 3.3-1.4 5.4-1.4 4.5 0 6.4-2 6.5-6.7 0-1.7.4-3.4.9-3.8 1.7-1 1.1-10.2-.7-11.8-1.6-1.4-8.8-1.9-13.7-1zm7.2 1.9c-.3.3-1.2.4-1.9.1-.8-.3-.5-.6.6-.6 1.1-.1 1.7.2 1.3.5zM337.9 180.5c-4.3 2.3-7.9 7.9-7.9 12.2 0 4.1 1.8 10.2 3.8 12.5 2 2.5 4.3 8.8 3.5 10-.3.7-.7 5.9-.8 11.8-.2 14-3.5 39.1-5.8 43.4-.9 1.8-1.9 7.3-3.2 18.1-.3 2.2-1 7-1.6 10.6-.7 4.6-.7 7.9 0 10.5.6 2.2 1.3 5.7 1.7 7.9.4 2.8 1.7 5 4.4 7.6 2.1 2 5.2 6.6 7 10.2 3.7 7.6 5 8.2 13.5 6.2 3.3-.8 8.1-1.4 10.6-1.5 2.5 0 4.9-.3 5.3-.7 1-1.1 7.9-3.3 10.2-3.3 1.2 0 2.7-.6 3.3-1.4.6-.7 3.3-2.1 5.9-3.1 2.6-1 5.8-2.5 7.2-3.3 3.6-2.2 10-8.4 10-9.7 0-1.1 6.3-13.8 7.8-15.9 3.3-4.5 5.1-25.1 2.4-27.8-.7-.7-1.2-2.1-1.2-3.3 0-2.3-2-7.9-4-11.5-.8-1.4-1.3-3.3-1.1-4.4.1-1-.8-3-2.2-4.5-1.3-1.4-3.3-4.8-4.3-7.4-1-2.7-3-6.1-4.4-7.7-1.4-1.6-3.2-3.9-4-5.1-.8-1.2-2.3-3.1-3.2-4.1-1-1-1.8-2.2-1.8-2.7s-1.6-2.3-3.5-4c-1.9-1.7-3.5-3.4-3.5-3.8 0-.5-2.4-3.4-5.2-6.6-2.9-3.2-6.9-7.5-8.8-9.7-1.9-2.2-4.2-4-5-4-.8 0-4.2-3-7.5-6.6-3.3-3.6-6.8-7.4-7.7-8.5-2.1-2.2-6.2-2.4-9.9-.4zm22.2 50.2c1.6 1 2.9 2 2.9 2.4 0 .4 2.5 3.3 5.5 6.6 3 3.2 5.5 6.3 5.5 7 0 .7.6 1.6 1.3 2 1.3.7 7.4 9.7 9 13.3.4.8 2.1 3.5 3.7 6s3.5 5.6 4.1 7c4.8 10 5.9 13.1 6.5 17.5.5 4.2.2 5.4-1.6 7.7-2.6 3.4-9.5 6.5-16 7.4-2.9.4-5.1 1.2-5.4 2.1-.4 1-1.4 1.3-3 .9-1.2-.3-2.6-.3-2.9 0-.3.4-5.3.8-11.1.9l-10.6.3v-16.9c0-9.3.4-17.7.9-18.7.5-.9 1.4-5.1 2-9.2.7-4.1 1.8-10.5 2.7-14.1.8-3.6 1.4-7 1.3-7.5-.1-.5-.1-4.4 0-8.7.1-8.3.5-8.8 5.2-6zM772.5 184.6c-5.1 1.9-10.6 4.4-12.5 5.5-.8.5-3.1 1.7-5 2.5-1.9.9-4.9 2.7-6.7 4-1.7 1.3-4.2 2.4-5.4 2.4-2.8 0-11.5 4.2-15.3 7.4-2.1 1.7-2.7 3-2.3 4.5.3 1.2.1 2.1-.4 2.1-1.1 0-1.2 3.7-.1 4.4 1.5.9 1.1 24.7-.4 29.1-1.7 5.1-1.7 7 .1 12.2 1 2.9 1.2 5 .5 7-.5 1.5-1.6 7.6-2.5 13.5-.8 5.9-2 11.9-2.5 13.3-.6 1.5-1 4.4-1 6.7 0 2.2-.7 6.6-1.5 9.7-1 3.9-1.4 9.8-1.2 18.5.2 11.3.4 12.9 2.1 14.2 1.1.8 2.3 1.4 2.7 1.4 1 0 7.9-6.5 7.9-7.4 0-.4 1.8-2.9 4-5.5s4-5.4 4-6.2c0-.9.3-1.9.8-2.3.4-.4.7-3.1.8-5.9.1-9.9 5.7-40.7 7.4-40.7 1.9 0 18.8 10.8 21 13.5.8.9 3.4 3.1 5.9 4.8 2.5 1.7 6.1 4.4 7.9 6.1 6.4 5.9 10.2 9.7 10.2 10.2 0 .2 2 3.9 4.4 8.2 2.4 4.2 4.7 9.4 5 11.4.4 2.1 1.1 4 1.7 4.4 2.2 1.3 5.8-.8 8.2-4.9 1.4-2.4 4.4-6.2 6.6-8.4 2.3-2.2 4.1-4.8 4.1-5.7 0-.9.6-1.9 1.4-2.2 1.7-.7 1.6-6.6-.3-10.9-3-6.7-3.7-8-5.1-9.6-.8-.9-2.6-3-4-4.7-6.4-8-7.5-9.2-8.3-9.2-1.5 0-4.7-4.1-4.7-5.9 0-1.5 2.7-3.1 7.8-4.6 1.2-.3 2.7-1.5 3.2-2.6.6-1 1.7-1.9 2.5-1.9s1.5-.5 1.5-1c0-.6.9-1.9 1.9-2.9 1.8-1.8 3.1-3.9 6.3-10.1.7-1.4 1.8-3.1 2.5-3.8.7-.7 1.3-2.2 1.3-3.2s.4-2.1.9-2.5c.6-.3 2.2-3.1 3.7-6.2 2.1-4.5 2.7-7.4 2.8-13.3.1-4.1-.1-8.2-.5-9-5.2-11.9-11.4-19-16.7-19-1.4 0-2.2-.3-1.9-.7.9-.9-4.4-4-10.1-6-5.1-1.7-18.3-2.3-22.1-1.1-1.5.5-2.8.5-3.5-.2-1.3-1.3-2.2-1.2-7.1.6zm5.2 2c-.3.3-1.2.4-1.9.1-.8-.3-.5-.6.6-.6 1.1-.1 1.7.2 1.3.5zm-10.2 4.4c.3.6-.1.7-.9.4-1.8-.7-2.1-1.4-.7-1.4.6 0 1.3.4 1.6 1zM734 205c0 .5-.5 1-1.1 1-.5 0-.7-.5-.4-1 .3-.6.8-1 1.1-1 .2 0 .4.4.4 1zm49 7c2.5.7 5.4 1.6 6.5 2 1.1.5 3.8 1.4 6 2.1 7.6 2.3 15.6 8.7 17.3 13.7 1 2.9.8 3.8-1.2 7-2.6 4.2-4.3 5.2-14.1 8.4-5.4 1.8-9.8 2.4-19 2.7-6.7.1-13.7 0-15.6-.4-5.2-1-12.6-8.2-13.7-13.3-1.1-4.7.8-13.4 3.4-16.3 3-3.4 9.8-6.1 16.2-6.7 3.4-.2 6.5-.9 6.8-1.4.4-.5 1-.5 1.7 0 .7.6 3.2 1.5 5.7 2.2zm-7.5 78c-.3.5-1.1 1-1.6 1-.6 0-.7-.5-.4-1 .3-.6 1.1-1 1.6-1 .6 0 .7.4.4 1zm28.5 36.5c0 .5-.5.3-1-.5s-1-2-1-2.5c0-.6.5-.3 1 .5s1 1.9 1 2.5zm2 2.9c0 .3-.4.8-1 1.1-.5.3-1 .1-1-.4 0-.6.5-1.1 1-1.1.6 0 1 .2 1 .4zM629.6 189.5c-.8.8-2.1 1.5-2.8 1.5-3.8.1-8 12.5-9.3 27.7-.4 4.2-3.7 11-8 16.5-1.9 2.4-3.5 4.8-3.5 5.4 0 .6-.7 1.7-1.6 2.5-.8.7-2.5 3.1-3.6 5.3-1.1 2.3-2.4 4.3-2.9 4.6-.9.6-7.1 11.5-9.4 16.6C587 273 579.6 281 578 281c-1.6 0-3.7 5.2-4.5 10.9-.4 3-2.4 8.8-4.6 13-4 8-8.4 20.6-9.9 28-.6 3.4-.4 5 .7 6.7 3.4 5.3 9.1 3.7 14.8-4.1 2.2-3 4.3-5.5 4.7-5.5 1.3 0 4.3-7.9 5.5-14.5.2-1.1 1.2-3.8 2.3-6 1.1-2.2 2.4-5.2 2.9-6.6.6-1.7 2-2.9 3.8-3.4 3.1-.7 7.7-2.6 13.8-5.6 2.2-1 6.5-2.3 9.5-2.8s6.8-1.4 8.3-2c1.6-.6 4.2-1.1 5.8-1.1 1.6 0 4.2-.9 5.7-2 1.6-1.2 3.5-1.8 4.5-1.5 1.8.8 5 10.5 4.1 12.8-.3.8.2 5 1.2 9.3.9 4.4 1.8 10.1 1.9 12.8.2 2.7 1 6.5 1.9 8.5.8 2 2 6.2 2.6 9.4.8 3.9 2.1 6.9 4 9l2.7 3.1 3.1-2.5c1.6-1.3 3.5-3.5 4.2-4.9.6-1.3 2.9-4 5.1-5.8 2.2-1.9 4.6-5 5.5-7 1.3-3.2 1.3-4.1.1-7.2-2.5-6-4-11.3-4.8-16-.4-2.5-1.5-7.7-2.4-11.5-2.9-13-3.5-16-4.4-25-.5-5-1.7-12.2-2.6-16-.9-3.9-1.8-8.8-2.1-11-.7-6.2-2.7-14.5-3.6-15.1-.4-.3-.8.3-.8 1.2 0 1.3-.3 1.5-1.1.7s-.7-1.7.2-3.1c1.1-1.8 1-3.1-.5-7.9-1-3.2-2.2-6.6-2.7-7.5-.5-1-.9-2.7-.9-3.9 0-2.3-7.6-16.9-9.4-18.1-2.1-1.4-11.4-.9-13 .7zm3.5 46.2c1.9 4.8 4.9 18.3 4.9 21.9 0 5.9-1.2 7.1-8.2 7.9-3.5.3-9.1 1.3-12.6 2.1-3.4.8-6.7 1.2-7.2.9-1.6-1-1.2-3 1-5 1.1-1 2-2.2 2-2.7s1.8-4 4.1-7.6c2.2-3.7 4.5-7.6 5.2-8.7 7.6-12.6 8.9-13.7 10.8-8.8zM926.5 198c-.3.5-1.3 1-2.1 1-2.1 0-6.9 5.9-7 8.5 0 1.1-.3 2.5-.6 3-.3.6-.9 6.2-1.2 12.5-.3 6.3-.8 12.8-1.1 14.5-.3 1.6-.7 5.9-.9 9.5-.5 8.7-3.4 29-4.5 31.5-2 4.4-2.3 6.5-2.8 18-.8 18.5-.5 30.2.7 32 .4.5 1.4 3.5 2.4 6.6 2.1 6.8 5.3 10.2 9.2 9.7 2.7-.3 3.5-1.2 8-9.3.9-1.7 2.2-3.5 2.9-4 .7-.6 1.7-2.4 2.4-4.1 1.1-2.7.9-3.8-1.3-8.9-1.4-3.1-2.6-6.6-2.6-7.6s-.4-2.1-1-2.4c-1.3-.8-1.4-28.7-.1-30 .5-.6 1.1-4.2 1.4-8 .2-3.9 1.2-12 2.1-18 1.8-11.4 3.5-25.1 4-32 .3-4.7-1.2-18-2.5-21.3-.9-2.2-4.3-3-5.4-1.2zM492.8 199.3c-6 2.7-10.7 9.1-9.7 13.3.1.5-.1 1.7-.5 2.6-.4.9-.2 2.6.4 3.7 1.5 2.9 2.3 47.9.9 54.6-.6 2.7-1.4 7.5-1.9 10.5s-1.8 10.2-2.9 16c-1.9 9.3-2.6 20.8-2.2 35.1.1 2.9.8 5.5 1.9 6.9 1.8 2.2 1.9 2.2 5.3.6 2.3-1.1 4.3-3.2 5.9-6.4 1.4-2.6 3.7-6.2 5.3-8 1.9-2.4 2.7-4.4 2.8-7.5.1-7.1.7-15.1 2.7-36.2.4-3.9 1-7.5 1.4-8 .4-.6 1-3.8 1.3-7 1.3-11.3.7-60.7-.7-62.1-.5-.4-.8-1.9-.8-3.3s-.4-3.1-.8-3.8c-1.1-1.8-5.4-2.3-8.4-1zM1028.6 204.6c-3.3 1.3-6.2 2.7-6.5 3.2-.3.4-2.2 1.4-4.1 2.2-3 1.2-17.1 14.5-22 20.7-3.8 4.7-8.8 19.2-7.4 21.5.3.5.1 1.4-.4 2.1-1.5 1.9-2.4 28.2-1.3 38.4 1.3 11.8 6.7 22.3 15.3 29.7 4.9 4.2 18 10.8 24.9 12.5 5.1 1.2 22.7.5 24.4-.9.6-.5 2-.7 3.1-.4 1.2.3 2.6-.1 3.3-1 .8-.9 2.1-1.6 3.1-1.6.9 0 3.2-1 5.1-2.3 1.9-1.2 4.8-2.9 6.6-3.6 1.7-.7 3.9-2.1 4.9-3.2.9-1 2.3-1.9 2.9-1.9.7 0 2-1.1 2.9-2.5.9-1.4 2.1-2.5 2.6-2.5 1.6 0 20-18.7 20-20.3 0-.8.7-2 1.5-2.7.8-.7 1.5-2.1 1.5-3.1 0-1.1.4-1.9.9-1.9 1 0 2-4.3 2.6-12.5.6-6.8-1-18.6-3.1-22.7-.8-1.5-1.4-3.5-1.4-4.6 0-1-.8-2.7-1.9-3.8-1-1.1-2.2-3.1-2.6-4.4-.7-2.2-4.7-8.6-9.9-15.7-3.5-4.8-11.3-12.3-12.8-12.3-.7 0-2.4-.9-3.8-2s-3.7-2-5.2-2-2.9-.4-3.2-.9c-1-1.5-9.2-2.7-24.6-3.5-8.4-.4-10.2-.2-15.4 2zm16.7 24.3c7.1-1.9 18.2 3.3 30 14.1 7.2 6.6 9.3 10.8 11.8 24 2.4 12.1 2.5 15.1.7 20.2-1.9 5.3-8.8 14.5-12.3 16.3-1.6.9-3.7 2-4.5 2.5-6.5 3.9-15.5 6.8-20 6.4-6.2-.6-13.4-2.8-15.2-4.6-1-1-2.2-1.8-2.7-1.8-1.4 0-14.3-10.8-15.9-13.3-.8-1.2-2-2.7-2.6-3.2-.7-.6-2.2-3.6-3.5-6.8-1.3-3.1-2.7-5.7-3.1-5.7-1.6 0-.1-17.5 2-24 2.7-8.1 6.9-15 9.3-15 .9 0 1.7-.4 1.7-1 0-1.8 8.4-6.3 12.4-6.6 2.1-.1 4.3-.7 4.9-1.3.7-.7 1.5-.7 2.2-.1.7.6 2.5.6 4.8-.1zM692.5 484c-3.9.7-7.4 1.7-22.5 6.7-10.2 3.3-21.8 9.8-26 14.5-2.5 2.8-4.8 4.2-7.9 4.9-6.9 1.5-12.8 6.2-14.2 11.2-.7 2.3-1.9 5-2.7 5.9-1.2 1.4-1.1 1.8 1 3.2 4.7 3 14.2 6.7 16.7 6.4 2.2-.3 2.7-.9 2.9-3.8.2-1.9.9-4.1 1.5-4.8.6-.7 1.2-3.4 1.4-6 .8-11.9.7-11.7 4.3-11.7 2.1-.1 3.9-.8 5.1-2.3 2.4-3.1 20.7-12.1 29.4-14.5 3.9-1.1 9.1-2.5 11.6-3.2 5-1.4 14.8-.7 20.2 1.4 1.6.6 3.9 1.1 5.2 1.1 2.1 0 5.6 1.4 10.5 4.2.8.5 2.9 1.5 4.6 2.3 3.8 1.7 12.6 11.8 14.4 16.5.7 1.9 1.9 4.2 2.7 5.1.7.8 1.3 2.2 1.3 2.9 0 1.5 1.8 7.4 3.2 10.6 1 2.1 1.3 28 .4 34.4-.3 1.9-.7 5.4-.9 7.6-.5 4.5-3.2 9.5-3.9 7.3-.3-1-1.3-.9-4.1.4-4.6 2.2-15.4 3.6-19.3 2.5-1.6-.5-4.9-1-7.4-1.2-2.5-.2-5.7-.7-7.3-1.1-1.8-.5-3.5-.2-5.2.9-2.2 1.5-2.6 1.5-3.1.2-.5-1.4-10-6.4-15-8-1.2-.4-2.9-1.5-3.9-2.6s-2.2-2-2.7-2-2.7-1.2-4.9-2.6c-3.7-2.3-4.2-2.4-5.8-1-2.1 1.9-4.3 2-5.9.4-1.8-1.8-1.5-2.8.8-2.8 1.1 0 2-.5 2-1 0-.6-.9-1.8-2-2.7-1.1-1-2-2.3-2-2.9 0-.6-2.2-4-4.8-7.5-2.6-3.5-5.5-7.6-6.5-9.2-1.1-1.6-2.6-2.7-4-2.7-1.7 0-2.6-.9-3.6-3.5-1.5-4.2-3.3-4.6-2.9-.8.3 2.6 0 2.8-4.4 3.3-2.6.3-4.9.8-5.1 1-1.9 2.7-3.9 6.7-5.4 11.2-3.4 9.9-1.8 35.7 2.5 41.8 2 2.8 6.2 12.3 6.2 14 0 1.6 7.5 11.4 10.6 13.9 3.7 2.9 7.4 2.7 17.3-1.1 3.7-1.4 5.3.8 4.5 6.1-1.2 7.6-2.6 8.5-14.7 8.8-8.2.2-12.2.8-17.6 2.7-3.9 1.3-9.6 2.7-12.8 3.1-14.7 1.5-27.8 8.9-41.9 23.6-7.1 7.6-9.1 10.8-13.4 21.4-1.7 4.4-3.8 9.6-4.6 11.5-1.8 3.9-3.9 10.3-4.8 14.3-.4 1.5-2 4.9-3.5 7.5-1.7 2.7-4.1 9.3-5.5 15.2-1.5 5.8-3.6 12.8-4.7 15.6-2.8 7.2-3.9 16-2.3 18.2 1.9 2.4 1.7 4.5-.6 7.4-1.8 2.3-1.8 2.7-.3 4.7 1.4 2.1 1.4 2.6-.5 6-2.5 4.6-7.2 17.6-7.2 20.1 0 1-.6 2.3-1.4 2.7-3.3 2-19.5 28.3-19.6 32 0 .4-1.2 3-2.5 5.8-1.4 2.7-2.5 5.4-2.5 6 0 .5-.7 1.9-1.5 2.9-1.1 1.4-1.8 1.6-2.8.8-.7-.6-2.7-1.1-4.3-1.1-1.6.1-3.8-.2-4.9-.5-1.3-.5-2.6-.1-3.7 1.1-.9 1-2.8 3.1-4.3 4.6-1.7 2-3.1 2.7-4.3 2.2-.9-.3-3.9-1.1-6.7-1.6-2.7-.5-6.8-1.8-9-2.9-2.3-1.1-5.1-2-6.4-2-2.8 0-7.5 4.6-6.7 6.6.3.9.6 2.1.6 2.9 0 2.2 5.8 4 9.1 2.8 1.9-.8 4.1-.8 6.6-.1 2.1.5 4.8 1.2 6.1 1.5 3.5.8 3.7 2.8.8 6.6-3.5 4.6-3.3 6.6 1.5 11.5 4 4 4.4 4.1 10.8 4.3 20 .4 21.4.2 30.5-2.9 4.8-1.7 9.8-4 11.1-5.2 1.8-1.7 5.1-2.5 15.8-4 7.4-1.1 14.6-2.4 16-2.9 1.4-.6 4.7-1.1 7.4-1.1 2.6-.1 10.7-1.1 18-2.3 15-2.4 17.7-1.9 18.9 3.6.5 2.4.2 3.4-1.7 4.8-1.3 1-2.9 1.9-3.4 1.9-.6 0-2.8.9-5 2s-5.5 2-7.5 2c-7.4 0-31.8 5.2-35.3 7.5-1.3.8-2.6 1.2-3 .9-1.2-1.2-21.7 12.6-21.7 14.6 0 .4-1.1 1.8-2.3 3.1-2.8 2.8-7.5 11.8-11.1 20.9-3.2 8.3-3.9 25.1-1.3 27.8 1.5 1.4 1.4 1.7-.6 3.6l-2.2 2.1.2 38.5c.2 50.7.9 76.2 2.4 83.5.6 3.3 1.2 13.6 1.4 23 .4 26.7 2 38 8 54.5 1.5 4.1 3 9.1 3.4 11 2.1 10 10.1 22.1 20.7 31.4 8.5 7.4 17.7 16.7 20.1 20.3.8 1.2 1.9 4.6 2.3 7.5 2.3 13.5 3.2 17.8 5.6 24.9 2.2 6.6 3.5 8.5 8.7 13.7 3.4 3.3 8.2 7.1 10.7 8.5 10 5.4 28.6 6.1 39.3 1.4 3-1.4 5.8-3 6.1-3.6.4-.6 2-1.1 3.6-1.1 2.1 0 3.7-1 5.9-3.7 1.7-2.1 3.1-4.1 3.1-4.6s.9-2.2 2.1-3.8c1.5-2.2 2.2-5 2.6-11.2.2-4.5.6-8.3.8-8.5.4-.5 18.7 2.9 21 3.9 1.1.4 5.3.9 9.2 1.1 9.1.5 10.5 1.6 6.9 5.8-1.4 1.7-2.6 4.2-2.6 5.4 0 3.5 2 8.4 3.6 9 .8.3 1.4 1.5 1.4 2.6 0 1.5.7 2 2.9 2 1.6 0 4.9 1.1 7.2 2.5 2.4 1.4 5.2 2.5 6.1 2.5 1 0 3.4.7 5.5 1.6l6.3 2.7c1.4.5 4.3 1.9 6.5 3.1 4.7 2.4 18.5 3.1 18.5.9 0-1.7 6-4.7 7.1-3.6.5.5.4 2.4-.1 4.5-1.3 4.6-.7 16.4 1 20.3 2.6 6.1 2.9 7.1 3.6 11.4.3 2.4 1.5 5.8 2.5 7.5 1 1.7 1.9 4.5 1.9 6.3 0 2.2.6 3.6 2 4.3 1.1.6 2 1.7 2 2.5 0 1.5 3.7 7.3 6.3 9.9.8.9 2.5 3.1 3.6 5 2.7 4.3 10.1 9.1 16.6 10.7 2.8.7 6.8 2 9 3 9 3.9 16.6 5.6 21.4 4.7 2.5-.5 7.7-1 11.5-1.2 6.1-.2 7-.6 7.7-2.4.5-1.2 1.4-2.3 2.1-2.3.7-.1 1.8-.2 2.3-.4.6-.1 1.8-.3 2.7-.3.9-.1 1.8-1.2 2-2.5.2-1.4 1.1-2.3 2.6-2.5 1.2-.2 2.2-1 2.2-1.8s.7-1.7 1.5-2c1.6-.6 8.8-11.6 9.9-15.1.4-1.1 1.3-2.7 2.1-3.3.8-.7 1.5-2.1 1.5-3.1 0-1.1.4-2.7.9-3.7 3-6.2 4.1-9.3 4.7-13.5.8-5.6 1.8-6.5 4.7-4 1.2 1 3.8 2.6 5.7 3.5 1.9.9 5.8 2.7 8.6 4.1 4.5 2.3 5.4 2.4 7 1.2 1.8-1.3 1.8-1.4-.2-4.2-1.3-1.7-4.6-3.7-8.7-5.3-3.9-1.5-8.2-4.2-10.7-6.5l-4.1-4 .5-8c.3-4.4.9-9.6 1.4-11.5.8-3.4.9-3.5 5.7-3.6 8.2-.2 19.8-2.3 21.4-3.9.8-.8 1.8-3.6 2.1-6.2.4-4.2.8-4.8 3-5.1 1.3-.2 3.3-1 4.4-1.8 1.1-.8 3.6-1.4 5.6-1.4 8.3-.1 19.7-4.3 22.3-8.4 2-3.1 5.5-14.3 6.5-20.9.8-5.3.1-27.9-1.1-33.7-.3-1.4-1.3-6.6-2.2-11.5-2.7-15.1-3.7-19.8-5.1-24.3-.8-2.3-1.4-5.2-1.4-6.3 0-1.2-.8-3.8-1.9-5.8-1-2-2.6-6.3-3.6-9.6-2.6-9.3-6.3-18.4-10.6-25.8-2.1-3.8-3.9-7.1-3.9-7.3 0-.5-5.2-8-11.4-16.4-5.6-7.7-17-18.7-25-24-3.7-2.5-8.4-5.8-10.4-7.4-3.8-2.9-15.1-8.6-17.4-8.6-.7-.1-2.6-1.2-4.3-2.5-1.6-1.4-7.4-3.9-12.7-5.6-5.4-1.7-9.8-3.4-9.8-3.9 0-.4 1.2-1 2.8-1.3 1.5-.3 4.4-2 6.4-3.9 3-2.6 4-4.5 4.8-8.8 2.3-11.5 2.9-20.7 2-33-1-12.7-2.1-17.6-5.2-22-1-1.3-1.8-3-1.8-3.7 0-.7-1.6-2.7-3.5-4.6-3.4-3.3-3.4-3.5-2.1-6.3 1.6-3.2 2-11.4 1-21.7-.5-4.5-.2-8.8.6-12.3 1.2-4.8 1.1-6.2-.3-10.7-2-6.3-4.8-9.5-12.1-13.6-9.2-5.3-19.5-18.6-16.6-21.5.5-.5 1-1.9 1-3.1 0-1.1 2.7-7.5 5.9-14.2l5.9-12.2 6.5.2c13.3.4 18.2-5.9 20.8-26.8 1.4-10.4 1.6-26.7.7-38.5-.4-5.8-1.2-17.5-1.8-26-.5-8.5-1.4-18-1.9-21s-1.5-8.3-2.1-11.7c-.6-3.5-1.5-7.5-2.2-9-.6-1.6-1.2-3.5-1.3-4.3-.5-3.1-5.6-15.5-8.7-20.9-1.9-3.3-3.2-7-3.3-9.1 0-3-.5-3.8-3.8-5.5-2.2-1.2-4.4-3.4-5.3-5.5-2.5-5.4-11.7-17.1-16.1-20.6-7.5-6.1-21.9-12.4-34.5-15.3-4.6-1-9-1.9-9.8-1.9-.8-.1-4.6-.6-8.5-1.1-3.8-.6-9.1-1-11.6-1.1-3.4 0-5.1-.6-6.7-2.3-1.9-2.1-2.2-3.4-2.2-11.9 0-7.4.4-10 1.6-11.2.8-.9 1.9-1.6 2.4-1.6s4.3-2.3 8.4-5.1c10.8-7.2 15-15.5 16.7-32.9.6-5.8 1.4-11.9 1.8-13.5.9-3.3.8-8.2-.3-19-1-8.9-1.9-12.1-7-22.5-4.2-8.8-13.8-20.3-17.9-21.6-1.2-.3-2.9-1.2-3.7-1.9-.8-.7-5.8-2.5-11-4-5.2-1.4-10.9-3-12.6-3.6-1.7-.5-4.6-.9-6.5-.9-1.9 0-4.8-.4-6.4-.8-1.7-.4-4.8-.5-7-.2zm-59.9 38.5c-.9 1.3-1.6 3.3-1.6 4.4 0 2.2-1.5 3.5-3 2.6-.6-.4-.3-1.6 1-3.2 1.1-1.4 2-3.4 2-4.4 0-1.1.7-1.9 1.6-1.9 1.5 0 1.5.2 0 2.5zm19.5 24.7c.7 1.3 2.5 3.8 4 5.6 3.8 4.3 4 7.6.3 4.1-2.9-2.7-7.4-9.3-7.4-10.9 0-1.8 1.9-1.1 3.1 1.2zm9.7 15c.7.7 1.2 1.5 1.2 2 0 1.2-2.8-.2-3.4-1.8-.7-1.7.6-1.8 2.2-.2zm15.6 11.8c3.1 1.1 3.4 3 .6 3-1 0-2.4-.9-3-2-1.2-2.3-1.1-2.4 2.4-1zm6.6 5.1c0 .5-.7.9-1.5.9s-1.5-.7-1.5-1.5c0-.9.6-1.2 1.5-.9.8.4 1.5 1 1.5 1.5zm-18.2 1.1c.1.8-.9 2-2.3 2.6-2.8 1.3-2.9 1.3-1.5-2.3 1-2.8 3.3-3 3.8-.3zm26.6 2.7c2.3 1 5.5 2.5 7.1 3.2 2.4 1 2.7 1.3 1.1 1.7-1 .2-2.3-.1-2.9-.7-.6-.6-1.9-1.1-2.9-1.1-2.5 0-8.8-3.2-8.2-4.2.7-1.1 1.1-1.1 5.8 1.1zm-37.4.6c0 .8-.7 1.5-1.5 1.5-.9 0-1.2-.6-.9-1.5.4-.8 1-1.5 1.5-1.5s.9.7.9 1.5zm23.5 14.5c1.5 8.5 7.8 19.8 11.5 20.6 1.4.3 4.4 1.5 6.8 2.6 4.5 2.1 11.6 2.7 16.5 1.3 2-.5 3.3-.3 4.5.8 1.5 1.3 2 1.4 3.6.2 2.5-1.9 3.6-1.1 3.6 2.8 0 1.8.9 4.7 2 6.5 1.1 1.8 2 3.8 2 4.5 0 1.9-8.2 3.7-21.4 4.8-12.6.9-16.6.7-25.8-1.8-8.2-2.2-9.1-3.6-9.3-14.2-.2-4.8-.8-9.8-1.4-10.9-.6-1.1-1.1-3.1-1.1-4.3 0-1.2-.6-3.8-1.2-5.7-1-2.7-1-3.6-.1-3.9.8-.3 1-2.1.6-5.8-.4-3.8-.2-6 .7-7.1 1.2-1.4 1.7-1.1 4.6 2.3 1.9 2.1 3.6 5.4 3.9 7.3zm48.7-7.9c1.5 0 3 .4 3.3.9 1 1.7-3.7 2.7-9 2.1-3.8-.5-5.1-1-5.3-2.5-.4-1.7 0-1.8 3.9-1.1 2.4.4 5.6.7 7.1.6zm16.1.4c.3 1.7-5.2 3.7-8.3 3-4.2-.9-3.7-2.2 1.3-3.3 4.9-1.2 6.7-1.1 7 .3zM608.1 773.2c1.3.6 3.8 2.8 5.6 5 2.9 3.5 3.2 4.5 3.8 14 .4 5.7.5 12.5.3 15.3l-.3 5-6.7.1c-5.5.1-7.9.7-13.4 3.5C583.9 823 573 836.8 573 847c0 5.6-1.8 8-5.8 8-1.5 0-5.2.7-8.2 1.5-3.3.9-5.8 1.1-6.4.5-.5-.5 2.2-4.3 7.1-9.7C570 835.9 574 830 574 826c0-2.6 1.1-4.4 5.5-8.7 3-3 5.5-6.2 5.5-7.1 0-.9 1-4 2.2-7 2.1-5 2.1-5.4.5-8.2-1.7-2.9-1.7-2.9 1.3-4.7 1.7-1 4-3.3 5.1-5.1 2.1-3.7 10.1-13.2 11-13.2.3 0 1.6.5 3 1.2zM560 791.1c1.9.4 6.4 1.5 9.9 2.3 4.6 1.2 7.3 1.4 9.7.7 3-.8 3.4-.7 3.4 1 0 1-.5 1.9-1.1 1.9-.5 0-1.9 2.1-3.1 4.7-4.6 10.8-7 15.5-8.9 17.4-1.3 1.3-1.8 2.7-1.4 4 .5 1.5.1 2.5-1.4 3.6-1.2.8-3.6 3.9-5.3 7-1.8 3.1-8.8 11.3-16.5 19.1-7.4 7.5-15.5 16.6-18.1 20.2-2.5 3.6-5.4 7.1-6.4 7.8-1 .7-1.8 2-1.8 2.8 0 .8-.6 1.4-1.2 1.5-.7 0-4.7.2-8.8.5-12 .6-13.3-.1-18.7-10.4-.9-1.7-2-3.2-2.5-3.2-.4 0-.8-.5-.8-1.1 0-.6.9-.8 2.1-.4 1.5.5 2.9-.1 5.3-2.3 1.7-1.7 4.3-3.5 5.9-4.1 2.5-1 2.7-.9 2.7 1.4 0 1.3-.4 2.7-1 3-1.2.8-1.3 4.2-.1 4.9 1.2.8 11.8-9.9 12.7-12.7.4-1.2 1.5-3.3 2.5-4.6 1.1-1.3 1.9-3.1 1.9-4 0-.9.9-3.4 1.9-5.6 1-2.2 2.6-5.6 3.5-7.5 2.1-4.5 5.8-11.1 9.7-17.1 2.2-3.5 2.8-5.4 2.3-7.3-.5-2.1-.1-2.9 2.4-4.3 2.1-1.2 4-3.9 6.6-9.8 2-4.4 3.6-8.7 3.6-9.6 0-3 2.2-4 4.9-2.2 1.4.9 4.2 2 6.1 2.4zm281.6 17l5.2-.2-.4 8.8c-.7 13.1-1.4 19.2-2.5 19.8-.5.4-.9 1.7-.9 3.1 0 3.3-4 9.3-6.6 10-3.4.9-8.4-2.2-8.4-5.1 0-1.3.4-2.6.9-2.9.4-.3.6-2.5.4-4.8-.3-2.4-.4-5.2-.3-6.3.1-1.1.1-6.9.1-12.9v-10.9l3.7.8c2 .4 6 .7 8.8.6zm-228.3 12.4c.1.6-1.5 1.1-3.5 1.2-4.4.1-5.1-1.4-1-2 3.5-.5 4.3-.4 4.5.8zm4.7 2.5c0 .5-.4 1-.9 1-.6 0-1.3-.5-1.6-1-.3-.6.1-1 .9-1 .9 0 1.6.4 1.6 1zm-22.2 7c.7 0 1 .5.7 1.1-.4.6-1.4.8-2.2.5-.8-.3-2.3-.1-3.4.4-1.4.8-1.9.7-1.9-.3 0-2.1 1.2-2.9 3.5-2.3 1.1.3 2.6.6 3.3.6zm24.2.2c0 .4-.7.8-1.5.8s-1.5-.4-1.5-.8c0-.5.7-.9 1.5-.9s1.5.4 1.5.9zm2 7.4c0 1.4-1.2 1.9-2.3.8-.9-.9.4-3.5 1.4-2.8.5.3.9 1.2.9 2zm-34 0c0 .3-1.3 1.9-3 3.6-3.5 3.4-3.9 2.9-.9-1.3 1.8-2.6 3.9-3.8 3.9-2.3zm36 6.5c0 .5-.7.9-1.5.9-1.5 0-2-1.2-.9-2.3.8-.8 2.4.1 2.4 1.4zm-40.7 3.9c.3 1.3 0 2-.9 2-.8 0-1.4-.9-1.4-2s.4-2 .9-2 1.1.9 1.4 2zm38.7 23.1c0 .6-.4.7-1 .4-.5-.3-1-1.1-1-1.6 0-.6.5-.7 1-.4.6.3 1 1.1 1 1.6zm-.1 20c-2.2 1.4-3.3 1-1.9-.6.7-.8 1.7-1.2 2.2-.9.6.4.5 1-.3 1.5zM562 904c0 .5-.4 1-1 1-.5 0-1-.5-1-1 0-.6.5-1 1-1 .6 0 1 .4 1 1zm293.8 161.1c-.2.6-.8 1-1.3 1s-1.1-.4-1.3-1c-.2-.6.4-1.1 1.3-1.1s1.5.5 1.3 1.1zm10.2 3.9c0 .5-.7.7-1.5.4-.8-.4-1.5-.8-1.5-1 0-.2.7-.4 1.5-.4s1.5.4 1.5 1zm-192 17c0 .5-.4 1-.9 1-.6 0-1.3-.5-1.6-1-.3-.6.1-1 .9-1 .9 0 1.6.4 1.6 1zm230.5 12c.3.5.2 1-.4 1-.5 0-1.3-.5-1.6-1-.3-.6-.2-1 .4-1 .5 0 1.3.4 1.6 1zm-256.5 4c0 .5-.4 1-1 1-.5 0-1-.5-1-1 0-.6.5-1 1-1 .6 0 1 .4 1 1zm227 3c0 .5-.2 1-.4 1-.3 0-.8-.5-1.1-1-.3-.6-.1-1 .4-1 .6 0 1.1.4 1.1 1zm-261.6 35.2c.3 1.3.7 4.8 1 7.8.8 9 1.7 12.9 5.7 25.8.6 1.9.9 3.6.6 3.9-.3.3.2 2.4 1.2 4.6 2.4 5.7 3.4 13.4 1.9 14.4-1.8 1-8.4.4-12.5-1.3-2.9-1.3-3.4-1.9-2.8-3.7 3.5-11.5 2.9-25.3-1.7-39.4-1.6-5-2.8-10-2.6-11 .3-1.6 3.1-2.8 7.5-3.2.7 0 1.5.9 1.7 2.1zm83.6 17.7c0 .6-.4 1.3-1 1.6-.5.3-1-.1-1-.9 0-.9.5-1.6 1-1.6.6 0 1 .4 1 .9zm179.8 2.9c.3.9-.2 1.3-1.4 1-.9-.1-1.9-.9-2.2-1.6-.3-.9.2-1.3 1.4-1 .9.1 1.9.9 2.2 1.6zM705 1162c0 .5-.4 1-1 1-.5 0-1-.5-1-1 0-.6.5-1 1-1 .6 0 1 .4 1 1zm132 .8c0 1.1-1.1 2.4-2.4 3-2.3 1-2.3 1-1.3-1.9 1.3-3.2 3.7-3.9 3.7-1.1zm28-.9c0 .6-.8.9-1.7.9-1-.1-3 .2-4.5.5-1.6.4-2.8.3-2.8-.2s1.5-1.2 3.3-1.4c1.7-.2 3.8-.5 4.5-.5.6-.1 1.2.2 1.2.7zm18.2 3.2c.3 1.7.3 5.3 0 8-.4 4.1-.8 4.9-2.4 4.9-1.5 0-1.8-.4-1.2-1.8 1.3-3 1.6-9.9.5-12.1-1-1.8-.9-2.1.8-2.1 1.3 0 2 .9 2.3 3.1zm-33.7-1.1c.3.6-.4 1-1.7 1-1.8 0-2-.2-.8-1 1.9-1.2 1.8-1.2 2.5 0zm-18.5 4.1c0 .5-.8.9-1.8.9s-2.3.5-3 1.2c-1.9 1.9-2.7 0-.8-2.1 1.7-1.8 5.6-1.8 5.6 0zm-144.5 2.9c1.9.8 1.9.9-.2.9-1.2.1-2.5-.4-2.8-.9-.7-1.2.2-1.2 3 0zm140.2 4.6c.1 1.6 1 3.4 1.9 4.1 1.6 1.2 1.6 1.3-.4 1.3-2.5 0-4.2-2.7-4.2-6.5 0-3.6 2.4-2.7 2.7 1.1zm45.3 1.8c0 .9-3 1.4-3.5.6-.4-.6.3-1 1.4-1 1.2 0 2.1.2 2.1.4zm-102 4.6c0 .5-.5 1-1.1 1-.5 0-.7-.5-.4-1 .3-.6.8-1 1.1-1 .2 0 .4.4.4 1zm159 3c1.2.8 1.1 1-.7 1-1.3 0-2.3-.5-2.3-1 0-1.3 1.1-1.3 3 0zm-241.3 7.6c-.3.3-1.2.4-1.9.1-.8-.3-.5-.6.6-.6 1.1-.1 1.7.2 1.3.5zm196.3 1.5c0 .4-.6.9-1.2 1.2-1 .3-.8 1 .6 2.5 1.4 1.6 2.6 2 4.5 1.6 1.4-.4 3-.7 3.5-.8.5 0 1 1.8 1.1 4.1.2 2.3.6 4.7 1.1 5.4.4.7.8 2.4.9 3.8.6 8 1.7 17.8 2.2 19.1 1.2 3.1 4.2 18.4 3.7 19.1-.2.4.2 2.7 1 5.1.8 2.4 1.7 7 2 10.3.3 3.3.7 7.1.8 8.5.2 1.8-.2 2.5-1.7 2.8-2.4.5-6.5 4.1-6.5 5.8 0 .8-3 1.4-9.7 1.8-5.4.3-11.6 1-13.8 1.5-2.2.4-6.2.7-9 .6-2.7-.1-7.4.5-10.4 1.3-5.7 1.5-7 .9-7.1-3 0-1.7-5.5-4.2-7.1-3.2-.5.3-.9 1.4-.9 2.5 0 5.2-4.5-1-6.3-8.6-.5-2.2-1.1-7.6-1.3-12-.3-4.4-.9-9.1-1.4-10.5-.9-2.5-2.2-15.3-2.1-19.9.1-1.3-.3-2.9-.8-3.5-.4-.6-1.1-4.9-1.5-9.6-.4-4.7-.7-9.2-.8-10-.1-.8 0-3.4 0-5.8.2-3.7.5-4.2 2.6-4.2 1.3 0 2.9.7 3.6 1.5 1.7 2.1 2 2 6.2-1.9 3.1-2.8 4.5-3.4 8.5-3.5 2.6-.1 6.4-.4 8.3-.6 1.9-.2 7.4-.6 12.2-.7 4.8-.2 8.9-.6 9.2-.9.9-.9 9.6-.7 9.6.2zm-161.5 4.9c-.3.5-1 1-1.6 1-.5 0-.9-.5-.9-1 0-.6.7-1 1.6-1 .8 0 1.2.4.9 1zm1.5 7c0 .5-.9 1-1.9 1-1.1 0-2.3-.5-2.6-1-.4-.6.5-1 1.9-1s2.6.4 2.6 1zm12.7 16.6c-.3.3-1.2.4-1.9.1-.8-.3-.5-.6.6-.6 1.1-.1 1.7.2 1.3.5zm-28.2 8.2c-.3.3-1.1 0-1.8-.7-.9-1-.8-1.1.6-.5 1 .3 1.5.9 1.2 1.2zM636 1239c0 .5-.4 1-1 1-.5 0-1-.5-1-1 0-.6.5-1 1-1 .6 0 1 .4 1 1z"/><path d="M873 1207.1c-2.2 3-2.2 3.1-.5 9.2.9 3.4 2.2 6.8 2.7 7.4 1.2 1.4-.5 6.5-2.7 8.3-1 .9-1.5.2-2-3.2-.4-2.4-1.2-4.9-1.7-5.6-1.5-1.7-4.5-1.5-5.2.4-.4 1.1-1.2 1.4-2.4.9-.9-.4-2.4-.7-3.2-.7-.8 0-4.1-.4-7.4-.9-4.6-.6-6.5-.5-8.7.7-2.9 1.5-3 1.5-2.3-1.2.4-1.7.2-2.9-.7-3.5-1-.6-1.1-.9-.1-.9.8 0 1.2-1.5 1.2-4.3 0-5.8-3-8.7-8.9-8.7h-4.3l.5 11.7c.9 18.3 2 23.3 5.3 23.3 1.1 0 1.3-.6.9-2.1-.6-1.9-.4-2.1 1.6-1.5 5.3 1.4 10.7 1.8 12.6.8 1.1-.6 2.4-.8 2.8-.4 1 1 9.5 1.1 9.5.1 0-.5 2-.6 4.5-.2 3 .4 5 .1 6-.7 1.2-1 1.9-1 2.7-.2 1.9 1.9 4.6 1.4 6.4-1.3 2-3 4-3.2 5.4-.5 1.4 2.7 2.6 2.5 5.6-.7 2.2-2.4 2.5-3.3 1.9-7.3-.7-4.4-1.8-6-4.2-6-.9 0-1.2-1.6-.9-5.6.2-3 .7-5.8 1-6.1 1.1-1.1.6-3.4-.8-3.9-1.5-.6-4.5 1.9-6.5 5.2-.9 1.6-1 1.3-1.1-1.9 0-3.2-.3-3.7-2.4-3.7-1.6 0-3.2 1.1-4.6 3.1zm13 15.9c0 .5-.9 1-2 1s-2-.5-2-1c0-.6.9-1 2-1s2 .4 2 1zm-2 5c0 .5-.4 1-.9 1-.6 0-1.3-.5-1.6-1-.3-.6.1-1 .9-1 .9 0 1.6.4 1.6 1zm-37.4 3.7c-1.1 1.1-1.9-.6-1.1-2.4.8-1.7.8-1.7 1.2 0 .3 1 .2 2.1-.1 2.4zM839.5 1242c.3.5.8 1 1.1 1 .2 0 .4-.5.4-1 0-.6-.5-1-1.1-1-.5 0-.7.4-.4 1zM877.9 1243.4c-.2.2-2.2.7-4.3 1-2.2.4-4 .8-4 .9-.1.1-.7 1.2-1.3 2.4-2 3.6-1.7 5.6.8 5 1.9-.5 2-.3 1.4 3.1-.4 2-1.1 4.2-1.7 4.9-.6.8-.6 1.9.2 3.3.6 1.1.8 3.5.5 5.3-1.3 6.8 6.5 7.5 8 .8.8-3.5 3-4.1 3.8-1 .5 1.7.9 1.9 2.6.9 1.8-.9 2.5-.7 4.5 1.7 2 2.3 2.6 2.5 3.9 1.5.8-.7 1.8-2.4 2.1-3.7.4-1.4 1.1-2.5 1.6-2.5.6 0 1-.7 1-1.5s-.5-1.5-1-1.5c-.6 0-1.5-1.2-2-2.6-.6-1.5-1.5-2.3-2.3-2-.6.3-2 .9-2.9 1.2-1 .4-1.8 1.3-1.8 2 0 .8-.4 1.4-1 1.4-1.3 0-1.3-1.7-.1-2.4 1.3-.9 4.5-15.1 3.8-16.9-1.1-2.8-4.6-.7-6.8 4-1.1 2.4-1.7 4.7-1.5 5.2.3.5-.1 1.4-.9 2.1-2.3 1.9-2.8-.8-1-6.5.8-2.8 1.5-5.3 1.5-5.8 0-.7-2.4-1-3.1-.3zm2.1 18c0 1.5-1.8 3.1-2.6 2.3-.7-.7.7-3.7 1.7-3.7.5 0 .9.6.9 1.4zM835.8 1246.9c-2.5 2.1-1.9 5.1 1.1 5.1s3.5 6.8.7 9.8c-1.9 2.2-2 2.4-.3 3.3 1.3.7 1.7 2.3 1.7 6s.4 5.1 1.6 5.6c3 1.1 4.9-1.1 4.8-5.6 0-2.2.3-4.1.8-4.1s.6-1.1.2-2.5c-.4-1.5-.2-2.5.5-2.5.6 0 1.1-.9 1.1-2s-.4-2-.8-2c-.5 0-.8-2.8-.8-6.2l.1-6.1-4.3-.3c-2.8-.1-4.9.4-6.4 1.5zM856 1246.4c0 .8-1.3 2.8-3 4.4-3.5 3.6-3.8 5.7-1 7.2 1.8 1 2 1.9 1.8 9.3l-.3 8.2H860.2l-.1-14.4c-.1-8-.4-14.8-.7-15.3-.9-1.3-3.4-.9-3.4.6zM647.6 515.9c-.4.5-1 4.7-1.4 9.1-.7 6.5-.5 8.3.5 8.7 2.1.8 2.6-.2 3-6.4.2-3.2.5-7.1.6-8.7.2-2.9-1.6-4.6-2.7-2.7zM689.5 1277c-.3.5-.1 1 .4 1 .6 0 1.1-.5 1.1-1 0-.6-.2-1-.4-1-.3 0-.8.4-1.1 1zM645.6 1288.7c-.7 1.6.3 3 7.7 11 2.2 2.2 3.7 4.5 3.3 5.1-.3.5-2.2.8-4.3.8-2.1-.1-4.3.2-5 .7-.7.5-5.2 1.3-10 1.7-10.5.9-14.9 2.4-15.6 5.2-.8 2.7 1.6 5.7 10.6 13.6 7.2 6.3 12.2 9.2 16 9.2 3.5 0 14.7-8.1 14.7-10.6 0-2.4-2.7-3.6-4.9-2.2-1.2.7-2.1 1.7-2.1 2.3 0 1.3-6.5 6.5-8.2 6.5-1.8 0-16.1-11.6-17.2-14-1.7-3.8-.2-4.7 8-4.9 4.3-.1 8.4-.6 9-1.2.7-.6 4.1-1.2 7.6-1.4 3.5-.1 6.8-.3 7.5-.4.7-.1 1.7-1 2.3-2.1 1-1.8.3-3-5.4-9.2-3.6-3.9-6.6-7.8-6.6-8.8 0-3.1-6.3-4.2-7.4-1.3zM959 1325c-1.4.4-4.3 1.7-6.6 2.9-3.7 1.9-5.2 2.1-20 1.7-13.5-.4-16.2-.2-17.6 1.1-1 .9-1.8 2-1.8 2.4 0 1.4 7.5 3.3 14.5 3.5 8.5.3 12.7.8 14.3 1.8 1.9 1.1 13.4-1.6 17.2-4.1 2.7-1.8 4.9-2.3 10.2-2.3 8.2 0 12.5 1.9 15.7 6.8 5.4 8.3 7 10.5 11.5 15.7 5.7 6.5 9.8 7.9 14.3 4.7 1.5-1.1 3.9-2.3 5.3-2.7 1.4-.4 5.6-2.8 9.3-5.3 6.3-4.1 7.1-4.4 11.7-3.9 13.4 1.5 24.8 8.1 31.7 18.4 1.5 2.3 5.1 5.9 7.8 8 2.8 2.1 6.1 4.8 7.4 6.1 3.1 3.2 7.6 2.7 7.6-.8 0-1.9-1.2-3.3-5-5.7-5.1-3.3-6.3-4.4-18.3-16.8-3.8-3.9-8.2-8-9.9-9.2-4.2-3.1-12-6-19.7-7.4-5.8-1.1-7-1-10.8.6-2.4 1-5.6 2.8-7.3 4-4.4 3.2-14.8 8.5-16.6 8.5-2.4 0-8.7-7.4-12.4-14.6-3.4-6.6-8.4-11.3-13.7-12.9-5.4-1.6-14.6-1.9-18.8-.5zM664.4 1329.1c-1 1.6.5 2.5 7.1 4.3 10.9 3 23.9 8.7 26.8 11.7 2.8 3 3.5 6.7 1.6 8.6-.5.5-1.1 3.3-1.1 6.2-.1 4.7.2 5.5 3.5 8.9 2.4 2.4 5.4 4.2 8.2 5 5.5 1.5 14.5 1.6 14.5.2 0-.6-.1-1-.2-1-4.7-.1-12.7-2.5-15.4-4.5-3.9-3-4.3-5.7-1.9-12.5 2.1-5.9 1.9-8-1.3-11.5-2.7-2.9-8.8-6.5-11.1-6.5-.6 0-3.4-1.1-6.3-2.4-9.3-4.1-11.2-4.8-16.8-6.2-6.8-1.6-6.7-1.6-7.6-.3zM980 1363c0 .5.5 1 1 1 .6 0 1-.5 1-1 0-.6-.4-1-1-1-.5 0-1 .4-1 1zM864.1 1368.9c-1 .6-.9 1 .3 1.4.8.3 1.8.2 2.1-.3.8-1.3-.9-2-2.4-1.1zM892.8 1369.7c.7.3 1.6.2 1.9-.1.4-.3-.2-.6-1.3-.5-1.1 0-1.4.3-.6.6zM1095.2 1375.2c-1.7 1.7-1.5 3.2.6 5.2 1.4 1.2 4.5 1.7 12.8 2.1 13.9.6 12.9.5 19.4 1.6 11.5 2.1 19 4.5 19 6 0 .5-1.5.9-3.2.9-6-.1-19.1 1.2-21.4 2-1.3.5-2.8 1.8-3.4 3-.9 1.7-.7 2.2 1.7 3.1 2.1.8 3.7.8 6.3-.2 2.4-.9 10.8-1.4 27.9-1.5 19.9-.1 24.6-.4 25.8-1.6 1.3-1.3 1.3-1.7-.1-3.1-.9-.8-2.4-1.3-3.4-1-1 .2-4.3-.7-7.3-2-6.1-2.8-17.8-6.7-29.5-9.8-18-4.7-42.6-7.3-45.2-4.7zM733.7 1378.7c-1.7 1.6-.4 3.3 3.1 4.2 2 .6 9.3 2.2 16.2 3.6 6.9 1.5 14.5 3.2 17 3.9 2.5.8 7.4 2.2 11 3.1 3.6 1 9.2 2.6 12.5 3.6 7.1 2.1 18.7 4.3 30.5 5.9 12.9 1.7 32.7 6.8 39.3 10.2 12.3 6.2 26.3 9 25.5 5.1-.2-1-1.7-2-3.3-2.4-3.4-.9-18.4-6.3-21.2-7.7-8.2-4.2-10.4-5-14.8-5.7-2.7-.4-5.4-1.1-6-1.5-1.2-1-10.4-2.6-19.5-3.5-6.9-.6-15.6-2.4-28-5.7-4.1-1-11.5-3-16.5-4.2-4.9-1.3-10.1-2.8-11.5-3.3-1.4-.6-5-1.3-8-1.7-3-.4-5.9-1.1-6.5-1.6-.6-.5-4.9-1.4-9.5-1.9-10-1.3-9.5-1.3-10.3-.4zM1058.9 1398.4c-1.5.9-3.8 4-5.4 7.3-1.5 3.2-3.1 6.5-3.5 7.3-.4.9-2.4 1.6-5.1 1.8-2.4.2-4.9.8-5.6 1.4-.8.6-6 1-12.6 1-6.2-.1-14 .3-17.3.8-5.6 1-12.1 1.4-36.3 2.5-5.7.2-11.2.7-12.2 1-2.3.8-26.9-1.4-29-2.5-1.6-.9-14-1.8-26.9-2-11.5-.2-11.2-.3-10.8 2.2.4 2.9 3.2 3.4 20.7 4.3 7.5.3 16.1 1.4 19.1 2.2 3.9 1.2 9.3 1.6 18.5 1.5 13.1-.1 32.5-1.1 33.5-1.7.3-.2 9.1-.6 19.5-1 10.5-.4 19.3-.9 19.6-1.1.4-.2 5.7-.6 11.8-1 6.2-.3 12.6-1.1 14.4-1.9 3.7-1.5 7.7-6.5 7.7-9.4 0-1.1 1-3.1 2.3-4.5 2.2-2.5 2.2-2.5 24.7-3 21.9-.5 29-1.4 29-3.9 0-.9-5.7-1.2-20.3-1.4-11.1 0-23.1-.4-26.7-.7-4.8-.5-7.2-.2-9.1.8z"/></svg>